<!-- logo -->
<svg width="790" height="83" fill="none" xmlns="http://www.w3.org/2000/svg">
  <path d="M24.1 81.8H.9V1.4h23.2v80.4Zm85.501 0h-19.4L57.4 38.4h-.6v43.4H33.6V1.4h19.8l32.3 43.2h.7V1.4h23.2v80.4Zm9.5-80.4h61.6v17.1h-38.4V33h34.6v17.1h-34.6v31.7h-23.2V1.4ZM241 22.1c-2.8-2.3-6.4-3.4-11-3.4-6.1 0-10.8 2-14.2 6-3.3 4-5 9.6-5 16.9 0 7.3 1.7 13.1 5 17 3.3 3.9 8 5.8 14.1 5.9 4.4 0 8-1.1 10.8-3.1 2.8-2 4.5-4.8 5.1-8.5l23.6.2c-.5 4.8-2.3 9.6-5.5 14.1-3.2 4.6-7.7 8.3-13.6 11.2-5.9 2.9-12.8 4.4-20.8 4.4S214 81.2 207.6 78c-6.4-3.2-11.4-7.9-15.1-14.2-3.7-6.3-5.5-13.7-5.5-22.3 0-8.6 1.9-16.1 5.6-22.3 3.7-6.2 8.8-10.9 15.2-14.2 6.4-3.2 13.7-4.8 21.7-4.8 7.4 0 13.9 1.2 19.7 3.6 5.8 2.4 10.4 6 14 10.6 3.5 4.7 5.6 10.2 6.3 16.7h-23.6c-.6-3.7-2.2-6.7-4.9-9Zm116.4 41.8c-3.7 6.2-8.9 10.9-15.3 14.2-6.5 3.2-13.7 4.8-21.8 4.8-8.1 0-15.4-1.6-21.9-4.9-6.5-3.2-11.6-8-15.3-14.2-3.7-6.2-5.6-13.6-5.6-22.3 0-8.7 1.9-16.1 5.6-22.3C286.8 13 292 8.3 298.4 5c6.5-3.2 13.8-4.8 21.9-4.8 8.1 0 15.3 1.6 21.8 4.8 6.5 3.2 11.6 7.9 15.3 14.2 3.7 6.2 5.6 13.7 5.6 22.3 0 8.6-1.9 16.2-5.6 22.4Zm-51.2-5.4c3.2 3.9 7.9 5.9 14 5.9s10.7-2 14-5.9c3.2-3.9 4.9-9.6 4.8-16.9 0-7.4-1.6-13.1-4.8-17-3.3-3.9-7.9-5.9-14-5.9s-10.8 2-14 5.9c-3.3 3.9-4.9 9.6-4.9 17s1.7 13 4.9 16.9Zm141.701 23.3h-19.4l-32.8-43.4h-.7v43.4h-23.2V1.4h19.8l32.4 43.2h.7V1.4h23.2v80.4ZM482.1 66.6l32.8-25.1c2.6-2 4.6-3.7 6.1-5.1 1.5-1.4 2.7-2.9 3.5-4.5.8-1.6 1.3-3.3 1.3-5.1 0-3.1-1.1-5.6-3.3-7.4-2.2-1.8-5-2.7-8.4-2.7-3.4 0-6.2.9-8.4 2.9-2.1 1.9-3.2 4.6-3.1 7.9h-22.1c0-5.5 1.4-10.3 4.1-14.4 2.7-4.1 6.7-7.2 11.7-9.4 5.1-2.2 11-3.3 17.7-3.3 6.7 0 13 1 18.1 3 5.2 2 9.2 4.9 12 8.6 2.8 3.7 4.2 8 4.2 13 0 3.3-.7 6.4-2.2 9.4-1.4 3-4 6.3-7.6 10-3.6 3.7-8.7 8-15.3 13.1l-8.9 7v.4h34.9v17h-67.3l.2-15.3Zm93.1 11.5c-5.8-3.2-10.2-7.9-13.3-14.1-3.1-6.2-4.7-13.7-4.7-22.4s1.6-16.2 4.7-22.4c3.1-6.2 7.6-10.9 13.3-14.1C581 1.9 587.8.3 595.8.3c8 0 14.8 1.6 20.6 4.9 5.8 3.2 10.2 8 13.3 14.2 3.1 6.2 4.7 13.6 4.7 22.3 0 8.7-1.6 16.2-4.7 22.4-3.1 6.2-7.6 10.9-13.3 14.1-5.8 3.2-12.6 4.8-20.6 4.8-8 0-14.8-1.7-20.6-4.9Zm9.9-18.2c2.6 4 6.1 6 10.6 6s8-2 10.6-6c2.6-4 3.9-10 3.9-18.1 0-8.1-1.3-14.3-3.9-18.4-2.6-4.1-6.1-6.2-10.6-6.2s-8 2.1-10.6 6.2c-2.6 4.1-3.9 10.2-3.9 18.4s1.3 14.2 3.9 18.1Zm58.101 6.7 32.8-25.1c2.6-2 4.6-3.7 6.1-5.1 1.5-1.4 2.7-2.9 3.5-4.5.8-1.6 1.3-3.3 1.3-5.1 0-3.1-1.1-5.6-3.3-7.4-2.2-1.8-5-2.7-8.4-2.7-3.4 0-6.2.9-8.4 2.9-2.1 1.9-3.2 4.6-3.1 7.9h-22.1c0-5.5 1.4-10.3 4.1-14.4 2.7-4.1 6.7-7.2 11.7-9.4 5.1-2.2 11-3.3 17.7-3.3 6.7 0 13 1 18.1 3 5.2 2 9.2 4.9 12 8.6 2.8 3.7 4.2 8 4.2 13 0 3.3-.7 6.4-2.2 9.4-1.4 3-4 6.3-7.6 10-3.6 3.7-8.7 8-15.3 13.1l-8.9 7v.4h34.9v17h-67.3l.2-15.3Zm91.8 13.1c-5.4-2.1-9.6-5.1-12.7-9-3.1-3.8-4.6-8.2-4.7-13.1h23.4c0 1.6.6 3 1.7 4.2 1.1 1.2 2.5 2.2 4.4 2.9 1.8.7 3.9 1.1 6.3 1.1s4.4-.4 6.2-1.1c1.8-.7 3.2-1.8 4.2-3.1s1.5-2.8 1.5-4.6c0-1.8-.6-3.2-1.7-4.5-1.2-1.3-2.8-2.3-4.8-3.1-2-.8-4.4-1.1-7.1-1.1h-8.9V33.6h8.9c2.4 0 4.5-.4 6.4-1.1 1.9-.7 3.4-1.7 4.4-3 1.1-1.3 1.6-2.8 1.6-4.4 0-2.5-1-4.5-2.9-6.1-1.9-1.6-4.5-2.4-7.6-2.4-2.2 0-4.2.4-6 1.1-1.8.7-3.2 1.7-4.2 3.1-1 1.3-1.5 2.8-1.6 4.4h-22.2c0-4.8 1.5-9.1 4.4-12.9 2.9-3.8 7-6.7 12.1-8.8 5.1-2.1 11-3.2 17.5-3.2s12.1 1 17.1 3c5 2 8.9 4.8 11.7 8.3 2.8 3.5 4.2 7.5 4.2 12 0 2.9-.8 5.6-2.3 7.9-1.5 2.3-3.6 4.2-6.3 5.6-2.7 1.4-5.8 2.3-9.3 2.7v.7c6.9.7 12.2 2.7 15.8 5.9 3.6 3.2 5.4 7.4 5.4 12.4 0 4.6-1.5 8.8-4.6 12.4-3.1 3.7-7.4 6.5-13 8.6-5.5 2.1-11.8 3.1-18.9 3.1-7.1 0-13.1-1.1-18.4-3.2Z" fill="#fff"></path>
</svg>