<svg width="324" height="185" viewBox="0 0 324 185" fill="none" xmlns="http://www.w3.org/2000/svg">
    <path d="M40 47.346V0H52.3412V37.2752H71.5026V47.346H40Z" fill="#001122"/>
    <path d="M93.7169 48C82.4798 48 75.6272 41.1662 75.5947 29.6894C75.6272 18.703 82.5773 11.3787 93.4571 11.3787C103.915 11.3787 110.832 18.1471 110.865 29.5586V32.5014H87.7411V32.9591C87.7411 36.654 90.047 39.2371 93.9767 39.2371C96.6723 39.2371 98.7833 38.0926 99.5627 36.0327H110.8C109.598 43.3569 103.363 48 93.7169 48ZM87.7411 25.5695H99.4978C99.4653 22.3651 96.997 20.109 93.7169 20.1417C90.4367 20.109 87.8385 22.3651 87.7411 25.5695Z" fill="#001122"/>
    <path d="M114.437 37.5368C114.437 29.7221 120.251 26.6485 127.428 26.2234C130.091 26.0926 134.248 25.9619 135.677 25.8965V23.0191C135.645 21.0572 134.053 19.9455 131.65 19.9455C129.149 19.9455 127.46 21.0245 127.168 23.2807H115.801C116.256 16.8392 121.452 11.3787 131.845 11.3787C141.62 11.3787 147.953 16.2507 147.953 23.0845V47.346H136.457V42.376H136.197C134.086 46.2343 130.643 47.9019 125.934 47.9346C119.211 47.9019 114.437 44.5995 114.437 37.5368ZM125.999 36.8174C126.031 38.9428 127.623 40.0545 129.896 40.0218C132.981 40.0545 135.775 38.0599 135.742 34.7248V32.8283C134.508 32.861 131.26 32.9918 129.636 33.1553C127.428 33.4496 126.031 34.8883 125.999 36.8174Z" fill="#001122"/>
    <path d="M154.189 47.346V11.8365H166.076V18.5068H166.465C167.732 13.6022 170.72 11.346 174.52 11.3787C175.591 11.346 176.728 11.5422 177.702 11.7711V22.4305C176.501 22.0054 174.422 21.7766 173.091 21.7766C169.258 21.7766 166.433 24.5232 166.465 28.6431V47.346H154.189Z" fill="#001122"/>
    <path d="M194.201 27.2698V47.346H181.924V11.8365H193.551V18.5068H193.941C195.467 14.0926 199.527 11.3787 204.723 11.3787C212.193 11.3787 217.064 16.9046 216.999 24.7193V47.346H204.723V27.2698C204.788 23.6076 202.839 21.4169 199.527 21.4496C196.279 21.4169 194.201 23.6403 194.201 27.2698Z" fill="#001122"/>
    <path d="M106.964 152.333C106.118 148.909 103.288 146.933 99.1578 146.933C92.5878 146.933 88.7498 151.905 88.7498 160.434C88.7498 168.996 92.3276 174.034 99.0928 174.067C104.947 174.034 108.005 171.235 108.07 166.823H99.353V157.866H120.039V164.386C120.039 177.36 111.257 185 98.9627 185C85.3022 185 76.0325 175.681 76 160.566C76.0325 144.891 86.2129 136 98.8976 136C109.956 136 118.478 142.784 119.518 152.333H106.964Z" fill="#001122"/>
    <path d="M126.349 184.341V148.579H138.253V155.297H138.643C139.912 150.358 142.904 148.085 146.709 148.118C147.783 148.085 148.921 148.283 149.897 148.513V159.249C148.693 158.821 146.612 158.59 145.278 158.59C141.44 158.59 138.611 161.356 138.643 165.505V184.341H126.349Z" fill="#001122"/>
    <path d="M169.867 185C158.483 185 151.686 177.558 151.653 166.559C151.686 155.56 158.483 148.118 169.867 148.118C181.251 148.118 188.049 155.56 188.016 166.559C188.049 177.558 181.251 185 169.867 185ZM164.208 166.493C164.24 172.157 166.322 175.747 169.932 175.78C173.38 175.747 175.494 172.157 175.462 166.493C175.494 160.763 173.38 157.174 169.932 157.207C166.322 157.174 164.24 160.763 164.208 166.493Z" fill="#001122"/>
    <path d="M198.945 184.341L190.033 148.579H202.327L206.555 170.708H206.881L211.564 148.579H223.533L228.347 170.511H228.607L232.706 148.579H245L236.088 184.341H222.818L217.679 164.715H217.354L212.215 184.341H198.945Z" fill="#001122"/>
    <path d="M141.698 87.4113C141.438 84.2171 139.354 82.3071 135.121 82.3401C131.052 82.3071 129.163 83.9536 129.131 86.1599C129.033 88.6297 131.247 89.9798 135.642 90.9019L139.549 91.8239C149.675 93.9973 154.201 98.9698 154.266 106.313C154.201 115.665 147.103 120.901 135.187 120.934C123.01 120.901 115.098 115.567 115 103.81H126.851C127.047 108.256 130.075 110.594 134.991 110.594C139.256 110.594 141.536 108.849 141.568 106.313C141.536 104.008 139.582 102.658 134.34 101.505L129.586 100.452C121.284 98.6075 116.205 94.4583 116.237 87.082C116.172 78.0591 124.051 72 135.121 72C146.419 72 153.55 78.1579 153.615 87.4113H141.698Z" fill="#001122"/>
    <path d="M171.783 100.122V120.341H159.476V72.6586H171.327V91.297H171.718C173.281 86.7856 177.122 84.1183 182.332 84.1183C189.82 84.1183 194.704 89.6176 194.704 97.5538V120.341H182.397V100.122C182.397 96.4341 180.509 94.2278 177.123 94.2608C173.899 94.2278 171.783 96.4671 171.783 100.122Z" fill="#001122"/>
    <path d="M199.458 110.462C199.458 102.592 205.286 99.4966 212.482 99.0685C215.151 98.9368 219.319 98.8051 220.751 98.7392V95.8414C220.719 93.8656 219.124 92.746 216.714 92.746C214.207 92.746 212.514 93.8327 212.221 96.1048H200.825C201.281 89.6176 206.491 84.1183 216.91 84.1183C226.71 84.1183 233.059 89.0249 233.059 95.9073V120.341H221.533V115.336H221.272C219.156 119.222 215.705 120.901 210.984 120.934C204.244 120.901 199.458 117.575 199.458 110.462ZM211.049 109.738C211.081 111.878 212.677 112.998 214.956 112.965C218.049 112.998 220.849 110.989 220.817 107.63V105.72C219.579 105.753 216.323 105.885 214.696 106.05C212.482 106.346 211.081 107.795 211.049 109.738Z" fill="#001122"/>
    <path d="M239.31 120.341V84.5793H251.227V91.297H251.617C252.887 86.3575 255.883 84.0854 259.692 84.1183C260.766 84.0854 261.906 84.2829 262.883 84.5134V95.2487C261.678 94.8206 259.594 94.5901 258.259 94.5901C254.417 94.5901 251.585 97.3562 251.617 101.505V120.341H239.31Z" fill="#001122"/>
    <path d="M282.809 121C271.543 121 264.674 114.118 264.641 102.559C264.674 91.4946 271.641 84.1183 282.548 84.1183C293.032 84.1183 299.967 90.9348 300 102.427V105.391H276.818V105.852C276.818 109.573 279.13 112.175 283.069 112.175C285.772 112.175 287.888 111.022 288.669 108.948H299.935C298.73 116.324 292.479 121 282.809 121ZM276.818 98.4099H288.604C288.572 95.1828 286.097 92.9106 282.809 92.9435C279.52 92.9106 276.916 95.1828 276.818 98.4099Z" fill="#001122"/>
</svg>
