<svg xmlns="http://www.w3.org/2000/svg" viewBox="0 0 12.03 9.07" xmlns:v="https://vecta.io/nano"><path d="m8.97,4.54c0,2.45-1.98,4.43-4.43,4.43S.1,6.98.1,4.54h8.87Z" fill="#503d28"/><path d="m3.06,4.54C3.06,2.09,5.04.1,7.49.1s4.43,1.98,4.43,4.43H3.06Z" fill="#ec69a4"/><g fill="#266041"><path d="M.1 4.43h11.82v.21H.1z"/><path d="M12.03 9.07H0V0h12.03v9.07zM.21 8.86h11.62V.21H.21v8.66z"/><path d="M12.03 4.54h-.21c0-2.39-1.94-4.33-4.33-4.33S3.16 2.15 3.16 4.54h-.21A4.55 4.55 0 0 1 7.49 0c2.5 0 4.54 2.03 4.54 4.54zM4.54 9.07C2.03 9.07 0 7.04 0 4.54h.21c0 2.39 1.94 4.33 4.33 4.33s4.33-1.94 4.33-4.33h.21c0 2.5-2.03 4.54-4.54 4.54z"/></g></svg>