<?xml version="1.0" encoding="UTF-8"?>
<svg id="Calque_1" data-name="Calque 1" xmlns="http://www.w3.org/2000/svg" xmlns:xlink="http://www.w3.org/1999/xlink" viewBox="0 0 146.1 44.91">
  <defs>
    <style>
      .cls-1 {
        fill: none;
      }

      .cls-2 {
        clip-path: url(#clippath);
      }

      .cls-3 {
        letter-spacing: -.07em;
      }

      .cls-4 {
        fill: #00533b;
      }

      .cls-5 {
        fill: #fff;
      }

      .cls-6 {
        fill: #8a8a89;
      }

      .cls-7 {
        fill: #d35d28;
      }

      .cls-8 {
        fill: #e51d42;
      }

      .cls-9 {
        fill: #1b5f3a;
      }

      .cls-10 {
        fill: #2b2b2a;
      }

      .cls-11 {
        fill: #9f9f9e;
        font-family: RGTitle, 'RG Title';
        font-size: 4.38px;
      }

      .cls-12 {
        clip-path: url(#clippath-1);
      }

      .cls-13 {
        clip-path: url(#clippath-2);
      }
    </style>
    <clipPath id="clippath">
      <rect class="cls-1" x="-3.92" y="-8.55" width="153.93" height="62.01"/>
    </clipPath>
    <clipPath id="clippath-1">
      <rect class="cls-1" x="-3.92" y="-8.55" width="153.93" height="62.01"/>
    </clipPath>
    <clipPath id="clippath-2">
      <rect class="cls-1" x="-3.92" y="-8.55" width="153.93" height="62.01"/>
    </clipPath>
  </defs>
  <g class="cls-2">
    <g class="cls-12">
      <path class="cls-4" d="m138.74,22.47c0,9.34-7.57,16.92-16.92,16.92s-16.92-7.58-16.92-16.92,7.57-16.92,16.92-16.92,16.92,7.58,16.92,16.92"/>
      <path class="cls-5" d="m121.82,6.16c-9.01,0-16.31,7.3-16.31,16.31s7.3,16.31,16.31,16.31,16.31-7.3,16.31-16.31-7.3-16.31-16.31-16.31m0,32.23c-8.79,0-15.91-7.12-15.91-15.91s7.12-15.91,15.91-15.91,15.91,7.12,15.91,15.91-7.12,15.91-15.91,15.91"/>
      <path class="cls-5" d="m131.78,22.51c0,5.5-4.46,9.96-9.96,9.96s-9.96-4.46-9.96-9.96,4.46-9.96,9.96-9.96,9.96,4.46,9.96,9.96"/>
      <path class="cls-5" d="m113.14,30.77l.14-.09c.22.24.76.73.76.73.39.35.39.73.18.97-.24.27-.69.36-1.13-.02-.04-.03-.08-.07-.11-.11l.11-.17c.24.22.53.12.69-.06.13-.15.14-.35-.09-.56l-.13-.11-1.31,1.46c-.11-.11-.26-.25-.36-.35l1.32-1.48-.08-.2Z"/>
      <path class="cls-5" d="m117.18,35.23l-.82-.32-.33.38-.33-.16,1.6-1.72.36.14.12,2.13.17.16-.06.12c-.22-.06-.51-.16-.68-.22l-.02-.53Zm-.63-.53l.62.24-.02-.59c0-.2.03-.39.03-.39h0s-.11.16-.24.3l-.39.44Z"/>
      <path class="cls-5" d="m121.19,34.46l.04-.16c.31.02,1.04,0,1.04,0,.5,0,.75.33.75.62,0,.27-.14.54-.51.69l.69.86c-.24.02-.43.04-.64.05l-.56-.88.03-.15c.31-.07.43-.3.43-.53,0-.18-.12-.38-.41-.38h-.17v1.95s-.5,0-.5,0v-1.98s-.2-.09-.2-.09Z"/>
      <path class="cls-5" d="m127.58,35.31c-.16.07-.3.13-.47.2l-.79-1.81h-.22s-.03-.17-.03-.17c.21-.09.4-.16.61-.26l.89,2.04Z"/>
      <path class="cls-5" d="m130.44,31.36l-.32-.13c-.06.05-.1.08-.16.14-.11.13-.18.31-.02.44.36.3.97-.48,1.53-.01.32.27.21.7-.04,1-.16.19-.42.35-.61.42l-.17-.29c.27-.08.45-.18.59-.34.09-.11.13-.24.01-.35-.34-.29-.98.45-1.51,0-.34-.29-.23-.72.04-1.04.13-.16.29-.27.44-.35l.36.34-.12.18Z"/>
      <path class="cls-5" d="m107.82,25.87l-.2-.03c-.05-.17-.24-1.14-.28-1.61-.07-.67.31-1.07.74-1.12.37-.05.79.17,1.02.7l1.52-1.37c0,.33.02.65.03.9l-1.43,1.13-.21-.02c-.13-.46-.47-.65-.78-.61-.27.03-.52.28-.47.7l.05.37,3-.37c.03.16.09.45.13.62l-3,.37-.11.35Z"/>
      <path class="cls-5" d="m110.78,20.88c-.17,1-1.01,1.6-1.99,1.43-1.11-.19-1.57-1.17-1.41-2.1.17-.98.87-1.72,1.92-1.53.98.17,1.67,1.03,1.47,2.2m-.36-.13c.11-.64-.23-1.19-1.16-1.35-.86-.15-1.4.28-1.52.93-.11.65.23,1.19,1.12,1.34.86.15,1.43-.25,1.55-.91"/>
      <path class="cls-5" d="m108.61,17.18l-.28.22-.15-.14c.09-.23.23-.59.35-.84l2.72,1.33.11-.22c.25-.51.1-1.02-.1-1.37l.19-.16.63.92c-.32.54-.6,1.21-.85,1.86l-.2-.04v-.38s-2.42-1.18-2.42-1.18Z"/>
      <path class="cls-5" d="m114.46,13.74l.11.17c-.23.19-.45.4-.68.63l-.81-.28-.93,1.04.43.82c-.08.11-.18.27-.26.4l-1.71-3.41.27-.31,3.23,1.11.35-.17Zm-1.76.39l-1.38-.5h0s.67,1.31.67,1.31l.72-.81Z"/>
      <path class="cls-5" d="m115.64,9.23l1.62,2.99-.21.1-3.05-1,1.33,2.01-.36.26-1.63-2.53-.37.03-.05-.2c.17-.12.38-.29.55-.4l2.8.89-.9-1.64-.36.03-.06-.2c.19-.1.49-.25.68-.34"/>
      <path class="cls-5" d="m118.44,8.25c1.23-.36,1.92.31,2.15,1.07.25.84-.07,1.83-1.2,2.17,0,0-.76.2-1.33.41l-.88-2.9-.36-.05v-.21c.62-.22,1.3-.4,1.62-.49m.64,2.97c.85-.26,1.07-1.02.88-1.64-.19-.63-.64-1.15-1.64-.92l-.52.16.77,2.55.52-.15Z"/>
      <path class="cls-5" d="m126.13,11.75c-.42.07-1.02.02-1.52-.11-.99-.26-1.75-.94-1.45-2.09.32-1.23,1.34-1.51,2.43-1.23.41.11.83.28,1.22.53l-.34.82-.18-.05-.04-.48c-.24-.22-.53-.39-.83-.47-.66-.17-1.35.08-1.58.96-.22.82.23,1.47.93,1.66.25.06.52.08.81.02l.17-.65-.49-.34.1-.2,1.11.29-.35,1.34Z"/>
      <path class="cls-5" d="m129.39,13.85l-.17.16c-.22-.18-.5-.42-.69-.55l.11-.91-1.19-.72-.68.55c-.14-.07-.29-.14-.44-.2l2.98-2.27.35.21-.47,3.44.19.29Zm-.69-1.7l.24-1.45h-.01s-1.16.89-1.16.89l.93.56Z"/>
      <path class="cls-5" d="m131.7,11.93l.19-.09c.51.48,1.12,1.19,1.12,1.19.42.5.33,1.07,0,1.35-.29.24-.75.3-1.24-.02l-.51,1.98-.53-.75.57-1.72.19-.1c.36.31.75.28.99.08.21-.18.3-.55.03-.87l-.26-.26-2.3,1.97-.45-.46,2.3-1.96-.1-.36Z"/>
      <path class="cls-5" d="m134.24,15.09l.2-.03c.27.47.49.87.75,1.47.26.6.02,1.11-.38,1.29-.34.15-.81.07-1.19-.37l-1.04,1.78c-.08-.28-.3-.87-.3-.87l1.03-1.5.21-.04c.26.4.64.48.93.35.25-.11.44-.44.27-.82l-.15-.34-2.77,1.27c-.11-.19-.22-.4-.32-.57l2.75-1.25v-.37Z"/>
      <path class="cls-5" d="m132.92,20.95c-.11-1.01.53-1.81,1.52-1.92,1.12-.12,1.83.69,1.93,1.63.1.99-.36,1.89-1.43,2-.99.1-1.89-.54-2.02-1.72m.38.03c.07.64.55,1.08,1.48.99.87-.09,1.27-.66,1.21-1.31-.07-.66-.54-1.08-1.45-.98-.87.09-1.31.63-1.24,1.3"/>
      <path class="cls-5" d="m135.21,25.31l.59-.16c.04-.1.08-.22.1-.34.05-.3,0-.63-.34-.69-.57-.09-1.02,1.46-1.91,1.32-.72-.12-.85-.77-.75-1.41.06-.39.26-.82.45-1.02l.4.23c-.25.27-.42.49-.49.93-.05.27.05.54.34.59.54.09,1.02-1.44,1.94-1.29.63.1.84.76.73,1.43-.05.29-.14.58-.26.79l-.83-.23.03-.16Z"/>
      <path class="cls-7" d="m127.63,14.92l-5.75,4.58c.19-.7.1-1.59-.45-2.23l4.35-3.46c-.31-.14-.62-.27-.95-.37l-4.09,3.26c-.31-.17-.7-.3-1.53-.3h-1.35l4.32-3.44c-.12,0-.24,0-.36,0-5.28,0-9.56,4.28-9.56,9.56,0,2.16.72,4.16,1.93,5.76v-2.58l3.53-2.81v-5.27h.78c1.09,0,1.56.67,1.56,1.22,0,.77-.58,1.36-1.73,1.53l-.12.51,1.57,2.96-5.58,4.44c.59.78,1.3,1.47,2.1,2.04v-2.58l3.85-3.06h1.94c.22,1.32,1.17,2.11,2.49,2.11.32,0,.67-.05,1.04-.15v-1.64l-1.48-.43.11-.74h3.08v3.6c-1.02.37-2.06.62-3.08.62-1.29,0-2.44-.4-3.29-1.44l-4.66,3.7c1.56,1.1,3.46,1.75,5.51,1.75,5.28,0,9.55-4.28,9.55-9.55,0-3.09-1.47-5.84-3.75-7.59m-.62,7.54h-.66l-.37-1.44c-.52-.22-.99-.32-1.44-.32-1.68,0-2.6,1.53-2.56,3.53l-1.37-2.63c.84-1.42,2.36-2.11,4-2.11.87,0,1.79.2,2.63.6l-.23,2.39Z"/>
      <rect class="cls-6" x="92.88" y="2.82" width=".9" height="39.29"/>
    </g>
    <text class="cls-11" transform="translate(23.02 42.13)"><tspan x="0" y="0">Premium </tspan><tspan class="cls-3" x="22.51" y="0">P</tspan><tspan x="25.14" y="0">artner</tspan></text>
    <g class="cls-13">
      <path class="cls-10" d="m45.81,34.89c3.07,0,5.78-2.06,5.78-5.56s-2.71-5.56-5.78-5.56-5.78,2.06-5.78,5.56,2.71,5.56,5.78,5.56m-19.77-.22h2.24l-5.14-10.69h-2.14l-4.75,10.69h1.98l1.03-2.41h5.67l1.11,2.41Zm55.45-10.69h-8.11v10.69h8.28v-1.71h-6.38v-2.79h5.43v-1.71h-5.43v-2.77h6.21v-1.71Zm-28.44,9.63c.43.35,1.74,1.28,4.02,1.28s4.18-1.25,4.18-3.2c0-4.07-5.89-2.77-5.89-4.99,0-.62.52-1.14,1.87-1.14,1.63,0,2.69.73,3.09,1.06l.79-1.57c-.49-.46-1.98-1.28-3.88-1.28-2.85,0-4.02,1.6-4.02,3.17,0,3.69,5.89,2.63,5.89,4.83,0,.92-.92,1.33-1.98,1.33-1.6,0-2.88-.71-3.42-1.11l-.65,1.63Zm-18.61-7.95c1.6,0,2.5.87,3.01,1.33l1.33-1.3c-.43-.49-1.71-1.93-4.37-1.93-3.07,0-5.78,2.06-5.78,5.56s2.69,5.56,5.75,5.56c2.36,0,3.96-1.28,4.48-1.74l-1.06-1.49c-.84.71-2.17,1.33-3.39,1.33-2.12,0-3.72-1.6-3.72-3.66s1.6-3.66,3.74-3.66m11.37,7.33c-2.12,0-3.72-1.6-3.72-3.66s1.6-3.66,3.72-3.66,3.72,1.6,3.72,3.66-1.6,3.66-3.72,3.66m20.24-7.3v8.98h1.9v-8.98h3.74v-1.71h-9.28v1.71h3.64Zm-56.79-1.71h-1.9v10.69h7.58v-1.71h-5.68v-8.98Zm12.73,1.87l2.17,4.75h-4.21l2.04-4.75Z"/>
      <path class="cls-9" d="m58.4,16.58c-.23-.15-.43-.16-.64-.23-.29-.09-.38-.44-.48-.48-.21-.08-.41.24-.54.2-.13-.04-.18-.47-.29-.51-.21-.08-.43.25-.56.21-.13-.04-.2-.46-.3-.5-.21-.08-.44.26-.56.22-.13-.04-.17-.48-.27-.52-.23-.09-.44.26-.64.23-.13-.02-.41-.07-.78-.32-.11-.07-.33-.25-.34-.25-.04-.01-.13-.04-.11.15.05.45.82.77,1.71,1.02.88.26,1.78.5,2.31.75.33.15.47.33.35.51-.09.14-.32.15-.57.03-.26-.13-.29-.33-.46-.37-.2-.05-.46.34-.62.3-.21-.05-.23-.49-.41-.54-.24-.07-.51.31-.67.28-.16-.03-.22-.51-.37-.55-.26-.07-.52.33-.68.29-.16-.03-.25-.5-.39-.56-.26-.1-.6.28-.95.1-1.14-.77-.92-1.17-1.8-1.43-.45-.13-1.01.03-1.34.06-.77.08-.74-.59-.74-.59.22.05.54.19,1.12-.02.63-.23.97-.27,1.79,0,.69.23,1.1.02,1.34-.04.12-.03.21-.1.43.05.22.14.44.3.55.24.17-.08.11-.53.4-.63.13-.04.49.32.65.26.16-.06.11-.53.4-.63.13-.04.5.32.65.26.16-.06.11-.53.4-.63.13-.04.5.32.65.26.16-.06.11-.53.4-.63.13-.04.5.32.65.26h0c.16-.06.14-.18.26-.5.02-.06.07-.13.14-.18.18-.15.44-.46.29-.8-.14-.31-.44-.3-1.09-.17-.55.11-3.94.86-3.94.86-.53-.98-.89-.33-1.67-.43-.5-.06-1.3-.57-2.57.61-.68-.19-1.29-.02-1.74.23-.76-.31-2.22-1.06-4.98-1.06-.78,0-2.65.15-5.62.94-.76.2-1.45.16-1.62-.29-.18-.47.43-.97,1.58-1.52,2.85-1.36,4.75-1.04,8.58-3.07,2.05-1.09,2.19-2.36,2.19-2.67,0-.21-.21-.28-.34-.11-.69.96-.87.88-1.08.67-.29-.29-.48.17-.79.4-.23.17-.28-.04-.47-.16-.32-.21-.6.41-.88.53-.32.14-.38-.02-.49-.13-.08-.08-.22-.08-.32.02-.65.62-.75.55-.94.34-.14-.15-.22-.26-.65.17-.24.25-.65.54-.78.23-.12-.31-.23-.49-.83.06-.35.32-.6.35-.7.2-.11-.15-.09-.57-.65-.13-.5.4-.76.63-.92.25-.16-.37-.53-.06-.81.21-.15.14-.39.48-.59.14-.2-.34-.51.01-.91.44-.23.24-.38.13-.6-.03-.26-.19-.53.48-.91.87-.07.07-.17.11-.4-.04-.29-.2-.76.83-.89,1.08-.22.41-.45-.11-.7.26-.59.86-1.21,1.81-1.39,3.49-.21,2.02.53,3.66,1.29,4.26,0,0-.09.23-.2.51-.21.57-.3,1.31-.03,1.82.26.5.88,1.33,1.11.55.11-.38.22-.36.58-.1.55.39.42-.32.53-.53.08-.15.17-.21.63.1.26.17.35-.06.42-.39.24-1.01-.23-1.25-.7-1.35-.34-.07-.7-.01-.7-.01.75-1.14.84-1.76,0-2.34.13-.06.23-.03.34.02.21.09.38.25.49.44.12.2.31.66-.08,1.47.16,0,.78.04,1.06.67.37.12,2.74.31,3.77.14.38-.06.55-.4.92-.75.41-.38.89-.8,1.31-.49-.72.3-1.23.86-1.23,1.57,0,.54.22.75.6,1.07.35.29.45.75.58,1.1.16.45.5.47.58.04.1-.59.28-.48.51-.23.28.31.5.26.5-.18,0-.42.13-.63.59-.14.19.2.42.19.42-.24,0-.52.23-.47.52-.25.1.08.17.13.23.13.23-.01.38-.46.2-.81-.09-.18-.22-.44-1.41-.69-.39-.08-.32-.35-.32-.35,2.92.14,5.39-.23,7.02-1.21,2,.48,4.93.53,5.89.52.96-.01,1.69-.06,2.29-.34.63-.3.54-.77.25-.95m-6.04-4.54c.06-.15.18-.25.3-.25.22,0,.33.24.33.32l-.54.12c-.15.03-.15-.05-.09-.19m-1.39-.04c.37,0,.6.29.64.42,0,0-.56.12-.8.18-.16.03-.26-.03-.28-.16-.02-.14.13-.43.44-.43m-15.48-3.43c.26-.12.53-.21.81-.27.06,0,.09.02.08.06-.05.18-.09.37-.13.56,0,.05-.05.07-.1.05-.21-.1-.43-.21-.66-.32-.05-.02-.05-.06,0-.09m-1.22.58c.26-.12.53-.21.81-.26.05,0,.09.02.08.06-.05.18-.09.37-.13.56,0,.05-.05.07-.1.05-.21-.1-.43-.21-.66-.32-.05-.02-.05-.07,0-.09m.53,1.27c.06-.01.09.02.08.06-.04.18-.09.37-.13.56,0,.05-.05.07-.1.05-.21-.1-.43-.21-.66-.32-.05-.02-.05-.06,0-.09.26-.12.53-.21.81-.26m-.51,1.07c-.05.18-.09.37-.13.56-.01.05-.05.07-.1.05-.21-.1-.43-.21-.66-.32-.05-.02-.05-.06,0-.09.26-.12.53-.21.81-.26.05,0,.09.02.08.06m-1.11-1.6c.25-.12.53-.21.81-.26.05,0,.09.02.08.06-.04.18-.09.37-.13.56,0,.05-.05.07-.1.05-.21-.1-.43-.21-.66-.32-.05-.02-.05-.06,0-.09m-.84.97c.26-.12.53-.21.81-.26.06-.01.09.02.08.06-.05.18-.09.37-.13.56,0,.05-.05.07-.1.05-.21-.1-.43-.21-.66-.32-.05-.02-.05-.06,0-.09m-.32,1.11c.26-.12.53-.21.81-.26.06-.01.09.02.08.06-.05.18-.09.37-.13.56-.01.05-.05.07-.1.05-.21-.1-.43-.21-.66-.32-.05-.02-.05-.06,0-.09m.14,1.21s-.05-.06,0-.09c.26-.12.53-.21.81-.27.06,0,.09.02.08.06-.05.18-.09.37-.13.56,0,.05-.05.07-.1.05-.21-.1-.43-.21-.66-.32m1.44,1.35s-.05.07-.1.05c-.21-.1-.43-.21-.66-.32-.05-.02-.05-.06,0-.09.26-.12.53-.21.81-.26.06-.01.09.02.08.06-.05.18-.09.37-.13.56m-.07-1.65s-.05-.06,0-.09c.26-.12.53-.21.81-.27.05,0,.09.02.08.06-.05.18-.09.37-.13.56,0,.05-.05.07-.1.05-.21-.1-.43-.21-.66-.32m1.27,2.27s-.05.07-.1.05c-.21-.1-.43-.21-.66-.32-.05-.02-.05-.06,0-.09.26-.12.53-.21.81-.26.06,0,.09.02.08.06-.05.18-.09.37-.13.56m.27-1.18s-.05.07-.1.05c-.21-.1-.43-.21-.66-.32-.05-.02-.05-.06,0-.09.26-.12.53-.21.81-.26.05-.01.09.02.08.06-.05.18-.09.37-.13.56m1.2.58c-.05.18-.09.37-.13.56-.01.05-.05.07-.1.05-.21-.1-.43-.21-.66-.32-.05-.02-.05-.06,0-.09.26-.12.53-.21.81-.26.06,0,.09.02.08.06m.06-.63c-.21-.1-.43-.21-.66-.32-.05-.02-.05-.07,0-.09.26-.12.53-.21.81-.27.06,0,.09.02.08.06-.05.18-.09.37-.13.56,0,.05-.05.07-.1.05m1.04,1.51c-.04.18-.09.37-.13.56-.01.05-.05.07-.1.05-.21-.1-.43-.21-.66-.32-.05-.02-.05-.06,0-.09.26-.12.53-.21.81-.26.05-.01.09.02.08.07m.27-1.22c-.05.18-.09.37-.13.56-.01.05-.05.07-.1.05-.21-.1-.43-.21-.66-.32-.05-.02-.05-.06,0-.09.25-.12.53-.21.81-.26.06,0,.09.02.08.07m.16-.72s-.05.07-.1.05c-.21-.1-.43-.21-.66-.32-.05-.02-.05-.06,0-.09.26-.12.53-.21.81-.27.06,0,.09.02.08.07-.05.18-.09.37-.13.56m.83,2.1s-.05.07-.1.05c-.21-.1-.43-.21-.66-.32-.05-.02-.05-.06,0-.09.26-.12.53-.21.81-.26.05,0,.09.02.08.06-.05.18-.09.37-.13.56m.26-1.18s-.05.07-.1.05c-.21-.1-.43-.21-.66-.32-.05-.02-.05-.06,0-.09.26-.12.53-.21.81-.26.06,0,.09.02.08.06-.05.18-.09.37-.13.56m.18-1.19c-.21-.1-.43-.21-.66-.32-.05-.02-.05-.06,0-.09.26-.12.53-.21.81-.26.06,0,.09.02.08.06-.04.18-.09.37-.13.56,0,.05-.05.07-.1.05m1.09,1.5c-.05.18-.09.37-.13.56,0,.05-.05.07-.1.05-.21-.1-.43-.21-.66-.32-.05-.02-.05-.06,0-.09.26-.12.53-.21.81-.26.06,0,.09.02.08.06m.26-1.18c-.05.18-.09.37-.13.56,0,.05-.05.07-.1.05-.21-.1-.43-.21-.66-.32-.05-.03-.05-.06,0-.09.26-.12.53-.21.81-.26.06,0,.09.02.08.06m.04-.56c-.21-.1-.43-.21-.66-.32-.05-.02-.05-.07,0-.09.26-.12.53-.21.81-.26.05-.01.09.02.08.06-.05.18-.09.37-.13.56-.01.05-.05.07-.1.05m1.07,1.6c-.04.18-.09.37-.13.56,0,.05-.05.07-.1.05-.21-.1-.43-.21-.66-.32-.05-.02-.05-.06,0-.09.26-.12.53-.21.81-.27.05,0,.09.02.08.06m.26-1.17c-.04.18-.09.37-.13.56-.01.05-.05.07-.1.05-.21-.1-.43-.21-.66-.32-.05-.02-.05-.06,0-.09.26-.12.53-.21.81-.27.06,0,.09.02.08.06m.13-.59s-.05.07-.1.05c-.21-.1-.43-.21-.66-.32-.05-.02-.05-.06,0-.09.26-.12.53-.21.81-.27.05,0,.09.02.08.06-.05.18-.09.37-.13.56m.97,1.81c-.05.18-.09.37-.13.56,0,.05-.05.07-.1.05-.21-.1-.43-.21-.66-.32-.05-.02-.05-.07,0-.09.26-.12.53-.21.81-.26.06-.01.09.02.08.07m.26-1.18c-.04.18-.09.37-.13.56,0,.05-.05.07-.1.05-.21-.1-.43-.21-.66-.32-.05-.02-.05-.07,0-.09.26-.12.53-.21.81-.26.06-.01.09.02.08.06m.26-1.16c-.05.18-.09.37-.13.56,0,.05-.05.07-.1.05-.21-.1-.43-.21-.66-.32-.05-.02-.05-.06,0-.09.26-.12.53-.21.81-.27.05,0,.09.02.08.07m.92,1.97s-.05.07-.1.05c-.21-.1-.43-.21-.66-.32-.05-.02-.05-.06,0-.09.26-.12.53-.21.81-.27.06,0,.09.02.08.06-.05.18-.09.37-.13.56m.39-1.75c-.04.18-.09.37-.13.56-.01.05-.05.07-.1.05-.21-.1-.43-.21-.66-.32-.05-.02-.05-.07,0-.09.26-.12.53-.21.81-.26.05-.01.09.02.08.06m1.25.44c-.04.18-.09.37-.13.56,0,.05-.05.07-.1.05-.21-.1-.43-.21-.66-.32-.05-.02-.05-.06,0-.09.26-.12.53-.21.81-.26.06-.01.09.02.08.06"/>
      <path class="cls-8" d="m51.15,14.07c-.81-.27-1.16-.23-1.79,0-.58.21-.89.07-1.12.02,0,0-.03.67.74.59.33-.04.89-.2,1.34-.06.87.26.65.66,1.8,1.43.35.19.69-.2.95-.1.14.05.22.52.39.56.16.03.42-.36.68-.29.15.04.21.52.37.55.16.03.43-.34.67-.28.18.05.21.49.41.54.16.04.42-.35.62-.3.17.04.19.25.46.37.25.12.47.11.57-.03.12-.18-.02-.36-.35-.51-.53-.25-1.43-.49-2.31-.75-.89-.26-1.66-.58-1.71-1.03-.02-.19.07-.17.11-.15-.34-.25-.41-.49-.39-.62h0s-.06.02-.1.03c-.24.06-.65.27-1.34.04"/>
    </g>
  </g>
</svg>