<svg xmlns="http://www.w3.org/2000/svg" viewBox="0 0 12.03 9.07" xmlns:v="https://vecta.io/nano"><path d="M8.97.1h2.96v8.87H8.97z" fill="#29235c"/><path d="M4.54 8.97C2.09 8.97.11 6.99.11 4.54h0v4.43h4.43z" fill="#ef7b00"/><path d="M.1 4.54C.1 2.09 2.08.11 4.53.11h0H.1v4.43z" fill="#fe0"/><g fill="#266041"><path d="M8.87.1h.21v8.87h-.21zM4.54 9.07C2.03 9.07 0 7.04 0 4.54S2.03 0 4.54 0v.21C2.15.21.21 2.15.21 4.54s1.94 4.33 4.33 4.33v.21z"/><path d="M12.03 9.07H0V0h12.03v9.07zM.21 8.86h11.62V.21H.21v8.66z"/></g></svg>