<svg xmlns="http://www.w3.org/2000/svg" viewBox="0 0 12.03 9.07" xmlns:v="https://vecta.io/nano"><circle cx="6.01" cy="4.54" r="4.43" fill="#fe0"/><path d="M6.01.1C3.57.1 1.58 2.09 1.58 4.54h0H.1h0V.1h5.91z" fill="#d6783f"/><path d="M6.01 8.97c2.45 0 4.43-1.98 4.43-4.43h0 1.48 0v4.43H6.01z" fill="#003123"/><g fill="#266041"><path d="M12.03 9.07H0V0h12.03v9.07zM.21 8.86h11.62V.21H.21v8.66z"/><path d="M10.45 4.43h1.48v.21h-1.48zM.1 4.43h1.48v.21H.1z"/><path d="m6.01,9.07c-2.5,0-4.54-2.03-4.54-4.54S3.51,0,6.01,0s4.54,2.03,4.54,4.54-2.03,4.54-4.54,4.54ZM6.01.21C3.63.21,1.68,2.15,1.68,4.54s1.94,4.33,4.33,4.33,4.33-1.94,4.33-4.33S8.4.21,6.01.21Z"/></g></svg>