<svg xmlns="http://www.w3.org/2000/svg" viewBox="0 0 701.2 418.7" fill="#fff" xmlns:v="https://vecta.io/nano"><path d="M197.3 172.7c-17.1.3-31.4 6.4-42.9 18.4-11.6 12-17.2 26.5-16.9 43.7.2 13.8 4 25.3 11.4 34.4s19.4 17.1 36 24.1l18.1-45.9c-2 .3-3.5.5-4.4.5-4.3.1-8-1.4-11.1-4.4-3-3-4.6-6.7-4.7-11.1-.1-4.3 1.4-8.1 4.3-11.2s6.5-4.7 10.8-4.8 8 1.4 11.1 4.4 4.8 6.6 4.8 10.7c0 2-.4 4.3-1.2 6.8l-36.4 97.5 50.5-.8 23.9-69.5c5.4-15.7 8.1-27.2 8-34.6-.2-15.8-6.5-29.6-18.7-41.2-12.3-11.6-26.5-17.3-42.6-17m211.4 21.2c-16.4-16.1-35.8-24-58.3-23.6-23.7.4-43.7 8.8-59.8 25.1-16.1 16.4-24 36.2-23.7 59.5.4 23 8.8 42.6 25.4 58.6 16.5 16 36.3 23.9 59.4 23.5 23.2-.4 42.8-8.8 58.7-25.2 16-16.5 23.7-36.3 23.4-59.5-.4-22.8-8.7-42.3-25.1-58.4m-33.1 85.2c-6.7 7.2-14.9 10.9-24.7 11-9.6.2-17.9-3.3-24.9-10.3s-10.5-15.6-10.7-25.7 3.1-18.7 9.8-26c6.7-7.2 14.9-10.9 24.6-11.1 9.8-.2 18.1 3.3 25 10.3s10.4 15.6 10.6 25.7c.3 10.2-3 18.9-9.7 26.1m-232.5 16.8c-5.3-7.5-18.9-28.8-21.5-48.4l-.6-4.3-.7-4.2v-.5c-.1-8.4.8-16.3 2.8-23.8l1.1-3.7a70.36 70.36 0 0 1 3.6-9l.6-1.5c.4-1.1 1.1-1.8 1.1-1.8s.8-1.4.9-2.6c.4-3.1-.7-5.5-6.7-8.3-.5-.2-1-.4-1.4-.7l-1.5-.6c-5.5-1.2-9.6-3.9-11.4-8.4-4.2-10.9 9.7-22.7 36.3-35.9 65.8-32.8 110.2-26 198.5-74.6 47.4-26 50-55.7 49.9-62.9-.1-4.9-5.1-6.5-7.9-2.4-15.7 22.7-19.9 20.9-25 16-6.8-6.6-11.1 4.1-18.2 9.6-5.4 4.1-6.6-.7-11-3.5-7.6-4.8-13.7 9.7-20.2 12.8-7.5 3.5-8.9-.3-11.5-2.9-1.8-1.9-5.1-1.8-7.4.5-15 14.7-17.2 13.1-21.8 8.3-3.4-3.5-5.3-6-15 4.1-5.6 5.8-15 12.8-18 5.7s-5.6-11.3-19.3 1.7c-8.2 7.7-13.8 8.4-16.3 4.8-2.6-3.5-2.3-13.3-15.2-2.8-11.5 9.4-17.4 15-21.3 6.2-3.9-8.5-12.4-1.2-18.8 5.2-3.4 3.3-8.9 11.2-13.6 3.4s-11.9.4-21.1 10.5c-5.2 5.7-8.8 3.3-14-.4-6.1-4.2-12.2 11.3-20.8 20.7-1.6 1.6-4 2.7-9.3-.9-6.9-4.6-17.3 19.5-20.2 25.4-4.9 9.6-10.6-2.3-16.3 6.3C18.6 153.1 4.4 175.5.8 214.8c-4.2 47 13.8 84.9 31.6 98.7 0 0-2.1 5.3-4.4 11.9-4.7 13.3-6.5 30.5 0 42.4 6.3 11.5 20.9 30.6 26 12.3 2.4-8.9 4.9-8.5 13.5-2.6 13 8.9 9.6-7.6 12.1-12.6 1.8-3.5 4-4.8 14.7 2 6.2 3.9 8-1.5 9.8-9.1 5.2-23.5-5.9-29-16.9-31.1-8-1.5-16.3 0-16.3 0 15.3-24 18.3-38.2 4.5-50.3-1.9-1.7 0-4.8 2.4-3.8h.1c4.8 1.9 8.9 5.6 11.5 10 2.8 4.7 7.4 15.3-1.3 34.2 3.1 0 13.6.4 20.9 9 3.9 4.6 12.7 6.7 18.7 7.1 8.3.6 14.4-2.9 14.4-2.9l.8-.5c1.1-.7 2.1-1.6 2.9-2.6.6-.9 1.1-1.8 1.6-2.7.3-.6.4-1.2.6-1.8l.2-.9c.1-.2.1-.3.1-.5.2-1.5.3-3.1.3-3.7.1-5.7-1.2-10.9-1.2-10.9l-4.3-10.5zM116.6 97.4c5.9-3 12.2-5.1 18.7-6.5 1.3-.2 2.2.4 1.9 1.5-1 4.3-1.9 8.7-2.8 13.1-.2 1.1-1.2 1.6-2.3 1.1l-15.5-7.2c-1.1-.5-1.1-1.5 0-2m-28.3 13.8c5.9-2.9 12.2-5.1 18.7-6.4 1.3-.3 2.1.4 1.9 1.5-1 4.3-1.9 8.6-2.8 13.1-.2 1.1-1.2 1.6-2.2 1.1l-15.5-7.2c-1.2-.6-1.3-1.5-.1-2.1m-16 84.8c5.9-3 12.2-5.2 18.7-6.5 1.3-.2 2.1.4 1.9 1.5-1 4.3-1.9 8.7-2.8 13.1-.2 1.1-1.2 1.6-2.3 1.1L72.3 198c-1.1-.5-1.1-1.5 0-2M69 172.6c-1.2-.5-1.2-1.5-.1-2.1 5.9-3 12.2-5.1 18.7-6.4 1.2-.2 2.1.4 1.9 1.5-1 4.3-1.9 8.6-2.8 13.1-.2 1.1-1.2 1.6-2.3 1.1L69 172.6m13.4-23.5c-1.2-.5-1.2-1.5-.1-2.1 5.9-3 12.2-5.1 18.7-6.4 1.3-.3 2.2.4 1.9 1.5-1 4.3-1.9 8.7-2.8 13.1-.2 1.1-1.2 1.6-2.2 1.1l-15.5-7.2m-19.3-20.3c5.9-3 12.2-5.1 18.7-6.4 1.3-.2 2.1.4 1.9 1.5-1 4.3-1.9 8.6-2.8 13.1-.2 1.1-1.2 1.6-2.3 1.1l-15.5-7.2c-1.2-.6-1.2-1.6 0-2.1m-19.2 22.7c5.9-3 12.2-5.1 18.7-6.4 1.3-.3 2.1.4 1.9 1.4-1 4.3-1.9 8.7-2.8 13.1-.2 1.1-1.2 1.6-2.3 1.1l-15.5-7.2c-1.1-.4-1.2-1.4 0-2m-7 26c5.9-3 12.2-5.1 18.8-6.4 1.3-.3 2.2.4 1.9 1.5-1 4.3-1.9 8.6-2.8 13.1-.2 1.1-1.2 1.7-2.3 1.1L37 179.6c-1.2-.6-1.2-1.5-.1-2.1m3.8 28.1c-1.2-.5-1.2-1.5-.1-2.1 5.9-3 12.2-5.1 18.7-6.5 1.3-.2 2.1.4 1.9 1.4-1 4.3-1.9 8.7-2.8 13.2-.2 1.1-1.2 1.6-2.3 1.1-4.8-2.3-9.9-4.7-15.4-7.1m36.7 17.7c-1 4.3-1.9 8.7-2.8 13.2-.2 1.1-1.2 1.6-2.3 1.1l-15.5-7.2c-1.2-.5-1.2-1.5-.1-2.1 5.9-3 12.2-5.1 18.7-6.4 1.4-.3 2.2.4 2 1.4m28.2 14c-1 4.3-1.9 8.6-2.8 13.1-.2 1.1-1.2 1.6-2.3 1.1L85 244.3c-1.2-.5-1.2-1.5-.1-2.1 5.9-2.9 12.2-5.1 18.7-6.4 1.4-.2 2.2.5 2 1.5m5.7-27.5c-1 4.3-1.9 8.7-2.8 13.2-.2 1.1-1.2 1.6-2.3 1.1l-15.5-7.2c-1.2-.5-1.2-1.5-.1-2.1 5.9-3 12.2-5.1 18.7-6.4 1.4-.3 2.2.4 2 1.4m252.8 144.9c-3.3-.6-5.2-1.9-6.3-3.2-1.3-1.6-3.2-2.6-5.3-2.5-1.2.1-2.5.1-3.7.1-17 .3-32.1-3.9-45.6-12.6-2.6-1.7-6.1-1.2-8.1 1.2-5.3 6.4-8.4 14.2-8.3 22.8.2 12.5 5.4 17.4 14.4 24.7 8.2 6.6 10.8 17.2 13.9 25.4 3.9 10.5 11.8 10.7 13.5.7 2.2-13.9 6.4-11.3 11.9-5.5 6.6 7.1 11.6 5.9 11.5-4.4-.1-9.7 2.7-14.6 13.8-3.5 4.5 4.5 9.8 4.3 9.6-5.7-.3-12.2 5.2-11.1 12.1-6 2.4 1.8 4.1 3.1 5.3 3 5.4-.4 8.7-10.9 4.5-19-2.2-4.1-5.3-10.2-33.2-15.5M451 258s0-.1 0 0c0-.1 0-.1 0 0"/><path d="M451 257.8v-.2.2m0-.7h0 0z"/><path d="M451 257.3v-.1.1"/><path d="M696.1 284.2c-5.1-3.1-9.6-3.4-14.3-4.8-6.3-1.8-8.5-9.5-10.8-10.3-4.7-1.7-9 5.5-11.8 4.6-2.9-.9-4.2-10.3-6.5-11.1-4.6-1.6-9.3 5.7-12.2 4.8s-4.5-10.1-6.9-11c-4.8-1.7-9.5 5.9-12.3 5-2.9-.9-3.8-10.5-6.2-11.4-5.1-1.8-9.6 5.9-14 5.3-2.8-.4-9.1-1.3-17.3-6.7-2.4-1.5-7.3-5.3-7.6-5.5-.1 0-.1 0-.2-.1l.1.1c-.5-.2-1.3-.4-1.9.2-.4.5-.7 1.4-.4 3.2 1.3 9.8 18.4 16.6 38 22 15.9 4.3 32 8.5 43.8 12.7 3 1.1 5.8 2.1 8.2 3.2 7.4 3.3 10.6 7.2 8 11.2-2 3.1-7 3.4-12.6.8-.1 0-.1-.1-.2-.1l-.6-.3c-5.1-2.3-6.3-6.1-8.9-7.6-.2-.1-.4-.1-.6-.2-4.6-1-10.2 7.7-13.8 6.9-.6-.1-1.1-.4-1.6-.8-3.3-1.9-4.4-8.8-7.3-10.9-.2-.1-.4-.2-.6-.2-5.4-1.4-11.3 7.1-14.9 6.4-.6-.1-1.2-.5-1.7-1.1-2.2-2.1-3.6-7.9-5.7-10.2-.4-.3-.7-.6-1.2-.7-5.7-1.4-11.4 7.5-15 6.8s-5.7-11-8.8-12.2c-5.7-2.2-13.2 6.5-21.1 2.4-25.7-16.7-20.9-25.6-40.4-31-3.6-1-7.6-1.2-11.5-.9-6.6.5-13 2.2-17.5 2.7-.6.1-1.2.1-1.8.2-16.2 1.4-15.8-12.8-15.8-12.8.3.1.7.2 1.1.2v-.2c2.8.6 6.1 1.8 10.8 1.9 3.5 0 7.8-.7 13-2.7 8.4-3.3 14.6-4.9 22.2-4.4 5 .3 10.6 1.5 17.9 3.8 4.6 1.5 8.7 2.1 12.2 2.1 8 .1 13.4-2.4 17-3.4.7-.2 1.4-.5 2.2-.7h0 0 0 0v.1c1.8-.5 3.9-.7 7.5 1.5 4.9 3 9.7 6.4 12.1 5.2 3.7-1.9 2.2-11.8 8.6-14 2.9-1 11 6.8 14.5 5.5 3.5-1.4 2.2-11.8 8.6-14 2.9-1 11 6.8 14.5 5.5 3.5-1.4 2.2-11.8 8.6-14 2.9-1 11 6.9 14.5 5.5s2.2-11.8 8.6-14c2.9-1 11 6.9 14.5 5.5h0c3.5-1.4 2.9-4.1 5.6-11.2.5-1.4 1.5-2.8 2.9-4 3.8-3.3 9.6-10.2 6-17.8-3.3-6.9-9.8-6.5-24-3.4l-83.3 19.5c-1.8.4-3.6-.4-4.6-1.9-11.1-17.5-18.8-4.5-35.4-6.2-10.7-1.1-28-11.6-54.6 12.6-1.1 1-2.7 1.4-4.1 1-12-2.8-24.4.1-34.2 5.4-2.2 1.2-4.5 2.6-6.2 4.6l-1.4 2.1a.76.76 0 0 0-.2.4c-4.2 9.8 1 17.4 2.3 25.1 1.8 11.4 3.4 18.6 3.3 29.5 0 .3-.2 8-.9 12.1-.4 2.7-3.5 15.9-7.2 26.5-4.1 11.6-18.9 24.7-6.2 27 .1 0 9.2 1.8 27.4-2.1 15.1-3.9 16.2-3.4 31.6-9.3 3.4-1.3 3.9-3.4-1.6-6a123.19 123.19 0 0 1-4-1.5c-5.2-1.9-13.4-10.4-10.2-12.1 0 0 1-.5 2-.1 1.8.7 5.8 6.4 14.7 9.5 7.6 2.6 15.3 3.9 15.4 3.9 44.1 9.6 107.7 8.2 128.6 7.6 21.1-.6 37.2-1.8 50.4-8.4 14.2-6.7 11.9-16.9 5.4-20.8M561.8 186c1.2-3.3 3.9-5.5 6.6-5.6 4.9-.1 7.4 5.3 7.4 6.9l-11.9 2.8c-3.3.7-3.2-1.1-2.1-4.1m-30.7-.1c8.2-.1 13.4 6.1 14.3 8.9h0c-.7.2-12.4 3-17.6 4.1-3.5.8-5.8-.7-6.2-3.4-.5-3 2.7-9.6 9.5-9.6"/><path d="M451 257.4c0-.1 0-.1 0 0 0-.1 0-.1 0 0m0 .5v-.1.1"/><path d="M451 257.5v-.2.2m123.3-14.1c.6-.5 1.4-.3 1.9-.2l-.1-.1c-.6-.2-1.3-.3-1.8.3m-7.1-13.9h0 0 0l-2.2.7c-3.6 1-9 3.5-17 3.4 8.1.2 13.5-2.4 17.2-3.4.6-.2 1.3-.4 2-.7 0 .1 0 .1 0 0h0zM671 295.3c-1.9 2.9-6.6 3.3-11.8 1.1.1 0 .1.1.2.1 5.5 2.5 10.6 2.2 12.6-.8 2.6-4-.6-7.9-8-11.2-2.4-1.1-5.2-2.1-8.2-3.2 2.7 1 5.2 1.9 7.4 2.9 7.2 3.2 10.3 7.2 7.8 11.1"/><path d="M602.2 277.6c-5.7-1.4-11.3 7.4-14.8 6.7-3.6-.7-5.7-11-8.7-12.1-5.7-2.2-13 6.4-20.8 2.4-25.4-16.6-20.7-25.4-40-30.8-3.8-1.1-8-1.2-12.1-.8 3.9-.3 7.8-.1 11.5.9 19.5 5.4 14.8 14.3 40.4 31 7.9 4 15.3-4.6 21.1-2.4 3 1.2 5.2 11.5 8.8 12.2s9.2-8.1 15-6.8c.4.1.8.3 1.2.7-.6-.6-1.1-.9-1.6-1m-130.4-44.4l-1.1-.3s-.4 14.3 15.8 12.9c-13.9.7-14.7-10.8-14.7-12.6m24.6-1.1c8.1-3.2 14.1-4.8 21.4-4.4-7.7-.5-13.8 1.1-22.2 4.4-5.2 2-9.4 2.7-13 2.7 3.7.1 8.2-.5 13.8-2.7m114.2 57.4c-.5-.1-.9-.4-1.4-.8.5.6 1.1 1 1.7 1.1 3.6.7 9.5-7.7 14.9-6.4.2 0 .4.1.6.2-.3-.2-.6-.4-1-.5-5.4-1.3-11.2 7.1-14.8 6.4m24.1 5.5c-.4-.1-.7-.2-1-.4.5.4 1 .6 1.6.8 3.6.8 9.2-7.9 13.8-6.9.2 0 .4.1.6.2-.4-.2-.8-.4-1.3-.5-4.6-1.1-10.1 7.6-13.7 6.8"/></svg>